# xmcd CD database file
#
# Track frame offsets:
#	150
#	14295
#	33352
#	52246
#	64989
#	81093
#	93301
#	117430
#	133563
#	146982
#	160358
#	175391
#	193383
#	208646
#	227088
#	242405
#	251746
#	268861
#	283130
#	300180
#	316492
#	331058
#
# Disc length: 4613 seconds
#
# Revision: 1
# Processed by: cddbd v1.5.2PL0 Copyright (c) Steve Scherf et al.
# Submitted via: CDex 1.70beta2
#
DISCID=4a120316
DTITLE=Rev. Barry Willie Black - Rev. Barry Willie Black's Fall 2015 Sampler
DYEAR=2015
DGENRE=Country
TTITLE0=Lonestar
TTITLE1=The Weary Kind
TTITLE2=And I Love You So
TTITLE3=Down To My Last Cigarette
TTITLE4=The Last Ten Years
TTITLE5=I'll Be There For You
TTITLE6=I Prefer The Moonlight
TTITLE7=Buy Me A Rose
TTITLE8=Slow Dance More
TTITLE9=If You Want To Find Love
TTITLE10=I Have You
TTITLE11=Any Dream Will Do
TTITLE12=Rose Colored Glasses
TTITLE13=Colors Of The Wind
TTITLE14=Colorblind
TTITLE15=When You Wish Upon A Star
TTITLE16=True Colors
TTITLE17=A Mother's Love's A Blessing
TTITLE18=Redemption Song
TTITLE19=Fields Of Gold
TTITLE20=Will The Circle Be Unbroken
TTITLE21=Desperado
EXTD=YEAR: 2015
EXTT0=
EXTT1=
EXTT2=
EXTT3=
EXTT4=
EXTT5=
EXTT6=
EXTT7=
EXTT8=
EXTT9=
EXTT10=
EXTT11=
EXTT12=
EXTT13=
EXTT14=
EXTT15=
EXTT16=
EXTT17=
EXTT18=
EXTT19=
EXTT20=
EXTT21=
PLAYORDER=
